<?xml version="1.0" encoding="UTF-8"?>
<!-- Generator: Adobe Illustrator 22.0.1, SVG Export Plug-In . SVG Version: 6.00 Build 0)  -->
<svg version="1.1" id="layer" xmlns="http://www.w3.org/2000/svg" xmlns:xlink="http://www.w3.org/1999/xlink" x="0px" y="0px" viewBox="0 0 620 140" style="enable-background:new 0 0 620 140;" xml:space="preserve"><script xmlns=""/>
<style type="text/css">
	.st0{fill:#00ACE9;}
</style>
<g>
	<polygon class="st0" points="212.5,100.7 196.9,42.1 213.5,42.1 221.8,86.1 222,86.1 230.6,42.1 246.7,42.1 230.5,100.7  "/>
	<g>
		<path class="st0" d="M288.8,32.2h-12.9V19.7h12.9V32.2z M268.2,32.2h-12.9V19.7h12.9V32.2z M263.8,82.5c0,4.2,0.7,9.3,6.1,9.3    c9.7,0,8.1-13,8.1-19.4C269.9,72.7,263.8,72,263.8,82.5 M294.1,89.8c0,3.6,0.5,7.3,0.8,10.9h-15.2l-0.7-7.8h-0.2    c-3.5,6-8.3,8.9-15.4,8.9c-11.4,0-15.6-8.5-15.6-18.7c0-19.4,15-20.2,30.2-20v-4.5c0-5-0.7-8.6-6.6-8.6c-5.7,0-6.2,4.3-6.2,8.9    h-16c0-7.1,2.2-11.6,6-14.3c3.7-2.8,9.1-3.8,15.4-3.8c20.8,0,23.5,8.9,23.5,19.6V89.8z"/>
		<path class="st0" d="M315.8,81.9c-0.1,2.7,0,5.2,0.8,7.1c0.9,1.9,2.7,2.8,5.9,2.8c3.3,0,6-2.1,6-6c0-12.4-28.9-9.6-28.9-28.3    c0-12.6,12.6-16.5,23.2-16.5c11.2,0,21.3,5.3,20.4,18h-16c0-4.1-0.5-6.5-1.6-7.5c-1-1-2.4-1.3-4.2-1.3c-3.6,0-5.6,2.3-5.6,6.3    c0,9.3,28.9,8.8,28.9,27.6c0,10.2-8.4,17.9-22,17.9c-14.3,0-23.8-3.6-22.9-19.9h16V81.9z"/>
		<path class="st0" d="M346.3,42.1h6.6v-9.3l16.4-7.3v16.6h8.5v10.1h-8.5v31.3c0,4.4-0.1,7.3,5.2,7.3c1,0,2.1,0,2.9-0.2v10.1    c-2.2,0.2-4.5,0.6-8.5,0.6c-14.2,0-16.1-9.4-16.1-13V52.2h-6.6V42.1H346.3z"/>
		<path class="st0" d="M377.6,42.1h6.6v-9.3l16.4-7.3v16.6h8.5v10.1h-8.5v31.3c0,4.4-0.1,7.3,5.2,7.3c1,0,2.1,0,2.9-0.2v10.1    c-2.2,0.2-4.5,0.6-8.5,0.6c-14.2,0-16.1-9.4-16.1-13V52.2h-6.6V42.1H377.6z"/>
		<path class="st0" d="M431.1,42.1v7.5h0.2c3-6.7,8.6-8.7,15.2-8.7v14.6c-14.4-0.9-14.7,7.4-14.7,13.2v31.9h-16.4V42h15.7V42.1z"/>
		<path class="st0" d="M493.4,89.8c0,3.6,0.5,7.3,0.8,10.9H479l-0.7-7.8h-0.2c-3.5,6-8.3,8.9-15.4,8.9c-11.4,0-15.6-8.5-15.6-18.7    c0-19.4,15-20.2,30.2-20v-4.5c0-5-0.7-8.6-6.6-8.6c-5.7,0-6.2,4.3-6.2,8.9h-16c0-7.1,2.2-11.6,6-14.3c3.7-2.8,9.1-3.8,15.4-3.8    c20.8,0,23.5,8.9,23.5,19.6L493.4,89.8L493.4,89.8z M463.2,82.5c0,4.2,0.7,9.3,6.1,9.3c9.7,0,8.1-13,8.1-19.4    C469.2,72.7,463.2,72,463.2,82.5"/>
		<path class="st0" d="M528,32.6c-7,0-7.8,0.8-7.8,5.2V42h7.8v10.6h-7.8v48h-16.4v-48h-7.4V42h7.4c-0.1-16.8-1.4-22.9,18.7-22.9    c2,0,3.6,0.1,5.6,0.2L528,32.6L528,32.6z"/>
		<path class="st0" d="M551.1,100.7h-16.4V42.1h16.4V100.7z M551.1,32.6h-16.4V19.7h16.4V32.6z"/>
	</g>
	<g>
		<polygon class="st0" points="559.6,100.7 559.5,19.7 576,19.7 576,66.8 576.3,66.8 591,42.1 608.1,42.1 591.5,68.2 610,100.7     591.5,100.7 576.3,68.8 576,68.8 576,100.7   "/>
		<path class="st0" d="M189.4,41.8c-37.4,2.4-62.5,27.7-62.5,27.7c-5.2-5.1-10.4-9.6-15.6-13.6c5.3-11.4,9.3-25.2,10.5-41.7    c0,0,26.1,5.2,38.4,29.9c2.6-0.6,5.4-1.2,8.2-1.6c-10.4-22.2-33-37.6-59.2-37.6c-20.5,0-38.8,9.4-50.8,24.2    C30.2,21.5,10,25.9,10,25.9c87.3,17.7,116.6,90.4,116.6,90.4C139,87.1,153.2,69,164.9,57.9c0.8,3.6,1.3,7.4,1.4,11.6    c0,0,1.2,20.6-13.5,36.8c0,0-15.4,20.6-43.6,20.2c0,0-26.7,1.6-45.3-22.2c0,0,16-6.5,31.2-23.8c-2.2-2-4.3-4-6.5-5.9    C81.2,83,71.7,90.9,59.3,97.2c0,0-13.5-21.2-3.6-47.5c-2.4-1.6-4.8-3.1-7.1-4.5c-3.1,7.6-4.9,16-4.9,24.7    c0,36,29.3,65.2,65.4,65.2s65.4-29.2,65.4-65.2c0-6.3-0.9-12.4-2.6-18.1C182.2,43.9,189.4,41.8,189.4,41.8 M66.9,31.7    c8.4-9.3,23.2-19.9,46.4-18.7c0,0-0.1,17.4-9.2,37.6C91.1,41.6,78.5,35.6,66.9,31.7"/>
	</g>
</g>
</svg>